# File created by Blade
# Date/Time:  Wed Jan 21 14:58:10 2015
# Frame Rate: 120.000 fps
#------------------------------------------------------
:FULLY-SPECIFIED
:DEGREES
297
root 16.375046 34.962302 -22.977685 -141.017369 -71.108152 -211.489471
Spine -31.033863 53.029309 -27.924007
Head 13.504231 28.537408 -1.095863
LeftShoulder -15.364801 -26.930351 22.845123
LeftArm -21.912516 0.470632 -11.557478
LeftForeArm 8.376045 -0.000000 -4.786627
LeftHand -11.063060 -0.000000 -4.838900
LeftHandThumb1 -26.253704 0.000000 33.147579
RightShoulder 7.566630 3.016799 -13.532006
RightArm 57.152821 11.920782 27.194367
RightForeArm -39.534682 -0.000000 9.866882
RightHand -6.601444 -0.000000 8.582419
RightHandThumb1 -24.326973 -0.000000 -32.862282
LeftUpLeg -18.666895 -36.411313 2.265545
LeftLeg -1.744372 -0.000000 0.000000
LeftFoot -7.748550 4.502599 -12.793811
LeftToeBase 31.298545 -0.000000 -0.000000
RightUpLeg 8.658099 -39.242156 -4.679408
RightLeg -2.534386 -0.000000 0.000000
RightFoot -40.913803 -46.197624 33.700068
RightToeBase 21.458743 -0.000000 -0.000000
298
root 16.360821 34.960867 -22.976124 -140.819947 -71.114647 -211.657711
Spine -31.077623 53.055082 -28.014497
Head 13.501495 28.676382 -1.060642
LeftShoulder -15.376429 -26.898049 22.803368
LeftArm -21.846586 0.366343 -11.618636
LeftForeArm 8.342328 -0.000000 -4.798014
LeftHand -11.101398 -0.000000 -4.928870
LeftHandThumb1 -26.253704 0.000000 33.147579
RightShoulder 7.650594 3.001715 -13.492295
RightArm 57.472874 11.878489 27.270008
RightForeArm -39.368735 -0.000000 10.001104
RightHand -6.585442 -0.000000 8.544143
RightHandThumb1 -24.326973 -0.000000 -32.862282
LeftUpLeg -18.692109 -36.434109 2.227104
LeftLeg -1.738638 -0.000000 0.000000
LeftFoot -7.744197 4.484803 -12.766478
LeftToeBase 31.266146 -0.000000 -0.000000
RightUpLeg 8.646637 -39.328673 -4.724980
RightLeg -2.536472 -0.000000 0.000000
RightFoot -40.888435 -46.134469 33.667460
RightToeBase 21.474902 -0.000000 -0.000000
299
root 16.347973 34.960376 -22.975429 -140.699474 -71.113275 -211.751848
Spine -31.112255 53.110111 -28.076400
Head 13.492925 28.811605 -1.060037
LeftShoulder -15.348188 -26.921614 22.712949
LeftArm -21.800557 0.374596 -11.636071
LeftForeArm 8.530827 0.000000 -4.872076
LeftHand -10.972766 -0.000000 -5.068958
LeftHandThumb1 -26.253704 0.000000 33.147579
RightShoulder 7.727788 2.965750 -13.509024
RightArm 57.806521 11.833543 27.408294
RightForeArm -39.351363 0.000000 10.098603
RightHand -6.664443 -0.000000 8.415520
RightHandThumb1 -24.326973 -0.000000 -32.862282
LeftUpLeg -18.715733 -36.452505 2.208776
LeftLeg -1.729418 -0.000000 0.000000
LeftFoot -7.758365 4.469335 -12.770423
LeftToeBase 31.288828 -0.000000 -0.000000
RightUpLeg 8.637355 -39.371891 -4.755080
RightLeg -2.533836 -0.000000 0.000000
RightFoot -40.845994 -46.122670 33.615254
RightToeBase 21.529144 -0.000000 -0.000000
300
root 16.333428 34.960445 -22.974047 -140.551374 -71.100224 -211.877416
Spine -31.161237 53.151238 -28.173786
Head 13.478596 28.960676 -1.013155
LeftShoulder -15.314133 -26.936214 22.662360
LeftArm -21.806952 0.336417 -11.659504
LeftForeArm 8.578835 0.000000 -4.868661
LeftHand -10.981568 0.000000 -5.151698
LeftHandThumb1 -26.253704 0.000000 33.147579
RightShoulder 7.794132 2.950293 -13.485931
RightArm 58.138242 11.758179 27.483400
RightForeArm -39.346818 -0.000000 10.165307
RightHand -6.638914 -0.000000 8.365591
RightHandThumb1 -24.326973 -0.000000 -32.862282
LeftUpLeg -18.744416 -36.493033 2.180946
LeftLeg -1.708488 -0.000000 0.000000
LeftFoot -7.757782 4.482587 -12.765563
LeftToeBase 31.181374 -0.000000 -0.000000
RightUpLeg 8.630303 -39.400825 -4.801093
RightLeg -2.530019 -0.000000 0.000000
RightFoot -40.833284 -46.106288 33.618290
RightToeBase 21.567307 -0.000000 -0.000000
301
root 16.318038 34.960787 -22.972922 -140.454416 -71.091570 -211.962486
Spine -31.164495 53.172130 -28.209913
Head 13.456714 29.141939 -0.985478
LeftShoulder -15.324148 -26.938577 22.652026
LeftArm -21.831744 0.339597 -11.722591
LeftForeArm 8.540004 -0.000000 -4.822419
LeftHand -11.040661 -0.000000 -5.184260
LeftHandThumb1 -26.253704 0.000000 33.147579
RightShoulder 7.864489 2.998178 -13.497970
RightArm 58.447314 11.634271 27.638085
RightForeArm -39.543550 -0.000000 10.239873
RightHand -6.678181 -0.000000 8.308430
RightHandThumb1 -24.326973 -0.000000 -32.862282
LeftUpLeg -18.761581 -36.529651 2.157046
LeftLeg -1.678395 -0.000000 0.000000
LeftFoot -7.772990 4.482834 -12.748810
LeftToeBase 31.230009 -0.000000 -0.000000
RightUpLeg 8.640983 -39.434111 -4.844146
RightLeg -2.534835 -0.000000 0.000000
RightFoot -40.823984 -46.111061 33.624667
RightToeBase 21.464848 -0.000000 -0.000000
302
root 16.300737 34.961987 -22.971701 -140.367202 -71.058732 -212.042042
Spine -31.224876 53.246249 -28.322416
Head 13.446492 29.250181 -0.956674
LeftShoulder -15.274872 -26.944202 22.634404
LeftArm -21.867834 0.322159 -11.780070
LeftForeArm 8.606115 -0.000000 -4.785627
LeftHand -11.062063 -0.000000 -5.137393
LeftHandThumb1 -26.253704 0.000000 33.147579
RightShoulder 7.877475 2.972038 -13.501704
RightArm 58.802410 11.521958 27.705299
RightForeArm -39.687462 -0.000000 10.237716
RightHand -6.590001 -0.000000 8.234930
RightHandThumb1 -24.326973 -0.000000 -32.862282
LeftUpLeg -18.767334 -36.556184 2.114975
LeftLeg -1.649807 -0.000000 0.000000
LeftFoot -7.804647 4.492393 -12.764529
LeftToeBase 31.222558 -0.000000 -0.000000
RightUpLeg 8.666259 -39.453509 -4.907420
RightLeg -2.553429 -0.000000 0.000000
RightFoot -40.817491 -46.090939 33.672115
RightToeBase 21.532581 -0.000000 -0.000000
303
root 16.283791 34.963129 -22.969352 -140.296881 -71.019335 -212.100311
Spine -31.285141 53.306907 -28.425755
Head 13.436742 29.356180 -0.935752
LeftShoulder -15.258144 -26.926578 22.641085
LeftArm -21.873418 0.323120 -11.852697
LeftForeArm 8.645599 -0.000000 -4.814690
LeftHand -10.991805 -0.000000 -5.064379
LeftHandThumb1 -26.253704 0.000000 33.147579
RightShoulder 7.948427 3.065798 -13.523727
RightArm 59.008030 11.343487 27.821565
RightForeArm -39.868168 -0.000000 10.354618
RightHand -6.603697 0.000000 8.288468
RightHandThumb1 -24.326973 -0.000000 -32.862282
LeftUpLeg -18.779251 -36.587962 2.081937
LeftLeg -1.622828 -0.000000 0.000000
LeftFoot -7.815488 4.500230 -12.787124
LeftToeBase 31.180676 -0.000000 -0.000000
RightUpLeg 8.684159 -39.482806 -4.969043
RightLeg -2.573605 -0.000000 0.000000
RightFoot -40.679205 -46.092327 33.501928
RightToeBase 21.659488 -0.000000 -0.000000
304
root 16.266230 34.964336 -22.967455 -140.302746 -70.956866 -212.086001
Spine -31.348845 53.389916 -28.524008
Head 13.424595 29.496978 -0.908504
LeftShoulder -15.257492 -26.927326 22.651163
LeftArm -21.870659 0.338633 -11.895905
LeftForeArm 8.711783 -0.000000 -4.869475
LeftHand -10.906441 -0.000000 -5.006018
LeftHandThumb1 -26.253704 0.000000 33.147579
RightShoulder 7.985075 3.031450 -13.548540
RightArm 59.321974 11.258857 27.883137
RightForeArm -39.955422 -0.000000 10.394042
RightHand -6.401314 -0.000000 8.287823
RightHandThumb1 -24.326973 -0.000000 -32.862282
LeftUpLeg -18.770407 -36.567647 2.033578
LeftLeg -1.593148 -0.000000 0.000000
LeftFoot -7.841834 4.494987 -12.778911
LeftToeBase 31.196318 -0.000000 -0.000000
RightUpLeg 8.703000 -39.479944 -5.027061
RightLeg -2.597628 -0.000000 0.000000
RightFoot -40.681463 -46.047659 33.555350
RightToeBase 21.635662 -0.000000 -0.000000
305
root 16.249495 34.965332 -22.965163 -140.284190 -70.895429 -212.092824
Spine -31.417280 53.448422 -28.632725
Head 13.418847 29.648213 -0.849576
LeftShoulder -15.247519 -26.937673 22.688340
LeftArm -21.937723 0.366299 -11.933394
LeftForeArm 8.772463 0.000000 -4.818248
LeftHand -11.004920 -0.000000 -4.945460
LeftHandThumb1 -26.253704 0.000000 33.147579
RightShoulder 8.068711 3.222660 -13.536432
RightArm 59.466430 11.015174 27.933874
RightForeArm -40.078206 0.000000 10.454709
RightHand -6.547058 0.000000 8.473890
RightHandThumb1 -24.326973 -0.000000 -32.862282
LeftUpLeg -18.771206 -36.576750 1.996585
LeftLeg -1.575430 -0.000000 0.000000
LeftFoot -7.862368 4.509578 -12.804543
LeftToeBase 31.176035 -0.000000 -0.000000
RightUpLeg 8.719048 -39.479817 -5.086688
RightLeg -2.619311 -0.000000 0.000000
RightFoot -40.622371 -46.058564 33.504383
RightToeBase 21.629399 -0.000000 -0.000000
306
root 16.233669 34.966777 -22.963652 -140.316461 -70.836294 -212.055827
Spine -31.453534 53.524430 -28.688929
Head 13.433378 29.809773 -0.838089
LeftShoulder -15.228221 -26.943171 22.661865
LeftArm -21.990220 0.340374 -11.884842
LeftForeArm 8.876165 -0.000000 -4.775670
LeftHand -11.101644 -0.000000 -4.828828
LeftHandThumb1 -26.253704 0.000000 33.147579
RightShoulder 8.113679 3.185734 -13.573799
RightArm 59.771479 10.931176 27.976403
RightForeArm -40.031816 -0.000000 10.422828
RightHand -6.422232 -0.000000 8.408853
RightHandThumb1 -24.326973 -0.000000 -32.862282
LeftUpLeg -18.764902 -36.594492 1.972626
LeftLeg -1.555103 -0.000000 0.000000
LeftFoot -7.884768 4.545493 -12.790833
LeftToeBase 31.079626 -0.000000 -0.000000
RightUpLeg 8.743775 -39.499702 -5.143052
RightLeg -2.633467 -0.000000 0.000000
RightFoot -40.559494 -46.001188 33.476731
RightToeBase 21.635974 -0.000000 -0.000000
307
root 16.217501 34.968223 -22.961444 -140.336183 -70.767830 -212.023684
Spine -31.542975 53.597360 -28.802785
Head 13.455331 29.921472 -0.792843
LeftShoulder -15.197671 -26.930514 22.648053
LeftArm -22.017625 0.349431 -11.841279
LeftForeArm 8.864487 -0.000000 -4.805120
LeftHand -11.147414 0.000000 -4.766129
LeftHandThumb1 -26.253704 0.000000 33.147579
RightShoulder 8.172142 3.116865 -13.587131
RightArm 60.033053 10.911264 28.035496
RightForeArm -39.959903 -0.000000 10.423627
RightHand -6.378853 -0.000000 8.245778
RightHandThumb1 -24.326973 -0.000000 -32.862282
LeftUpLeg -18.767012 -36.590478 1.937702
LeftLeg -1.531323 -0.000000 0.000000
LeftFoot -7.947135 4.565362 -12.834607
LeftToeBase 31.331075 -0.000000 -0.000000
RightUpLeg 8.755511 -39.496904 -5.198080
RightLeg -2.653404 -0.000000 0.000000
RightFoot -40.497336 -45.972873 33.452057
RightToeBase 21.623970 -0.000000 -0.000000
